<?xml version="1.0" standalone="no"?>
<!DOCTYPE svg PUBLIC "-//W3C//DTD SVG 20010904//EN"
 "http://www.w3.org/TR/2001/REC-SVG-20010904/DTD/svg10.dtd">
<svg version="1.0" xmlns="http://www.w3.org/2000/svg"
 width="220.000000pt" height="285.000000pt" viewBox="0 0 220.000000 285.000000"
 preserveAspectRatio="xMidYMid meet">
<metadata>
Created by potrace 1.13, written by Peter Selinger 2001-2015
</metadata>
<g transform="translate(0.000000,285.000000) scale(0.100000,-0.100000)"
fill="#000000" stroke="none">
<path d="M1313 2662 c-28 -10 -68 -31 -89 -47 l-37 -28 -24 28 c-18 21 -27 25
-36 16 -11 -11 -9 -12 15 -15 18 -2 57 -89 69 -153 6 -32 9 -85 6 -118 -5 -52
-4 -55 5 -25 13 44 4 162 -16 218 l-15 43 46 29 c72 46 136 63 212 57 144 -11
261 -89 323 -215 32 -64 33 -72 33 -182 0 -104 -3 -121 -27 -172 -53 -114
-173 -207 -288 -224 l-45 -7 41 40 c114 111 60 280 -98 307 -47 8 -109 -8
-133 -34 -17 -19 -19 -19 -37 -4 -10 10 -18 28 -18 42 0 14 -3 23 -6 19 -4 -3
-15 4 -26 16 l-19 22 15 -30 c8 -16 55 -95 104 -175 50 -80 89 -146 87 -148
-2 -2 -27 4 -56 12 -100 30 -277 13 -357 -34 -18 -11 -35 -20 -38 -20 -3 0 -3
33 0 73 3 39 2 56 -2 37 -6 -32 -10 -35 -52 -42 -99 -14 -223 20 -305 84 l-40
31 30 -32 c17 -18 42 -39 58 -47 15 -8 27 -18 27 -22 0 -14 -121 -82 -147 -82
l-28 -1 30 -13 c24 -10 31 -10 35 0 3 7 33 31 68 53 l62 41 62 -16 c37 -10 87
-15 125 -12 l63 4 0 -39 c0 -26 -8 -49 -22 -67 -13 -15 -28 -36 -35 -46 -11
-18 -12 -18 -12 4 -3 86 -94 105 -127 27 -8 -19 -20 -35 -27 -35 -7 0 -8 -3
-2 -8 20 -14 35 -79 29 -123 -8 -62 10 -119 56 -178 l40 -51 -32 7 c-57 10
-200 58 -199 66 2 13 -30 69 -37 63 -3 -4 0 -12 6 -18 7 -7 12 -29 12 -49 0
-29 -7 -43 -31 -63 -32 -27 -102 -39 -81 -13 8 9 -5 12 -57 12 -59 0 -74 5
-118 33 -30 19 -58 47 -67 66 -19 41 -20 47 -4 82 11 24 16 26 66 22 29 -3 47
-1 40 3 -7 5 -32 9 -55 9 -41 0 -43 2 -43 29 0 44 25 64 73 58 22 -3 53 -15
69 -27 15 -11 28 -16 28 -10 0 8 6 8 20 0 23 -12 24 -11 10 26 -8 20 -7 32 5
50 17 26 21 94 5 94 -5 0 -7 -7 -4 -15 13 -33 -6 -66 -49 -85 -23 -11 -36 -20
-29 -20 7 0 10 -5 7 -10 -4 -7 -12 -7 -25 0 -10 5 -35 10 -54 10 -33 0 -36 3
-36 28 0 31 28 64 70 82 24 10 24 10 -5 4 -49 -9 -75 -41 -75 -90 0 -24 -5
-46 -11 -49 -6 -4 -9 -23 -8 -44 2 -20 -3 -47 -10 -60 -17 -32 -7 -80 28 -126
16 -22 28 -44 27 -50 -2 -5 -1 -7 1 -2 12 20 33 4 34 -25 2 -31 2 -31 6 -6 4
27 5 27 32 14 14 -8 33 -26 41 -40 7 -15 30 -38 49 -53 36 -27 36 -27 -6 20
-24 26 -43 49 -43 53 0 11 123 -7 244 -37 66 -16 148 -32 183 -35 35 -4 63 -9
63 -11 0 -2 -29 -31 -65 -64 -75 -71 -114 -141 -122 -223 -6 -56 9 -129 30
-151 7 -7 7 -3 2 10 -4 11 -10 61 -12 110 -5 114 11 153 72 172 82 24 210 12
308 -29 42 -19 51 -28 82 -92 38 -76 56 -163 37 -175 -8 -5 -3 -19 15 -45 23
-31 25 -39 13 -46 -11 -7 -9 -9 8 -7 27 2 27 5 2 37 -14 19 -20 41 -20 86 0
68 -18 129 -52 177 -27 38 -29 93 -6 130 20 30 84 46 196 50 65 2 74 0 97 -24
24 -24 25 -27 11 -60 -8 -18 -26 -45 -40 -58 -21 -20 -31 -23 -67 -17 -50 8
-69 -5 -69 -48 0 -32 23 -76 41 -76 5 0 0 9 -11 20 -22 22 -27 75 -8 86 7 5
29 7 50 5 42 -3 108 39 108 68 0 26 40 58 87 70 34 9 49 9 78 -3 l36 -15 -31
30 c-16 17 -30 35 -30 40 0 5 -21 22 -46 38 -40 26 -103 43 -201 54 -19 2 -13
9 36 48 l58 46 29 -24 c35 -29 98 -63 116 -63 7 0 -6 9 -29 19 -90 41 -123 82
-89 110 10 9 17 6 30 -14 44 -67 161 -84 230 -32 104 80 109 277 7 344 -67 45
-170 22 -209 -47 -9 -16 -19 -30 -22 -30 -3 0 -15 26 -28 58 -13 31 -25 62
-28 68 -3 7 18 13 61 17 115 11 199 65 271 174 20 32 38 60 40 61 7 10 99 -42
139 -79 98 -91 135 -232 101 -389 -3 -14 1 -7 8 15 17 47 19 133 6 193 -26
112 -90 196 -185 243 -62 30 -64 32 -57 63 4 17 7 78 7 136 0 97 -2 110 -31
170 -65 138 -186 219 -337 226 -63 4 -94 0 -134 -14z m-28 -752 c19 -18 25
-33 25 -67 0 -61 -18 -99 -81 -167 l-54 -59 31 6 c80 16 154 -36 154 -108 0
-72 -84 -175 -143 -175 -9 0 -27 -11 -38 -24 -28 -32 -93 -58 -124 -50 -14 3
-37 20 -51 37 -14 17 -33 32 -42 33 -24 4 -62 26 -62 37 0 5 7 6 16 3 9 -3 31
-6 49 -6 25 0 35 -5 40 -20 6 -20 6 -20 23 0 9 11 33 21 52 24 19 2 43 7 54
11 11 5 21 3 26 -5 4 -7 16 15 29 59 12 39 26 71 31 71 6 0 10 -5 10 -12 0 -6
3 -8 6 -5 10 9 -16 37 -33 37 -8 0 -12 -4 -8 -10 9 -14 -63 -89 -109 -113 -31
-16 -60 -21 -116 -21 -87 -1 -132 18 -191 81 -51 53 -69 93 -69 153 l0 50 34
0 c25 0 40 7 54 25 26 33 45 25 88 -39 35 -52 43 -56 22 -12 -9 21 -8 29 6 45
9 10 14 25 10 35 -8 22 -20 20 -38 -5 -14 -21 -15 -21 -34 -3 -19 18 -19 22
-7 59 8 22 32 56 54 76 44 39 162 90 168 72 3 -7 16 -6 41 3 56 21 146 13 177
-16z"/>
<path d="M690 790 c30 -13 27 -10 35 -43 6 -23 5 -26 -11 -22 -15 5 -15 3 1
-5 14 -7 29 -37 44 -83 12 -40 22 -76 21 -81 -1 -5 5 -13 14 -18 9 -5 16 -18
16 -28 0 -30 42 -52 92 -48 32 2 42 7 39 18 -2 8 -4 22 -5 30 0 8 -7 20 -13
25 -7 6 -24 42 -37 82 -20 59 -22 72 -10 77 8 3 14 11 14 19 0 20 59 9 73 -14
7 -11 19 -19 28 -19 21 0 38 -27 77 -124 28 -68 30 -82 18 -95 -7 -9 -16 -38
-19 -65 -3 -36 -2 -45 5 -32 8 14 12 15 26 4 14 -11 14 -10 -1 12 -19 27 -21
48 -8 69 8 12 13 11 28 -8 21 -26 83 -32 109 -10 21 17 13 44 -47 161 -27 53
-49 100 -49 106 0 5 11 14 25 20 21 10 27 8 45 -18 11 -16 36 -38 55 -50 37
-23 126 -50 160 -49 11 0 -7 7 -39 15 -84 20 -186 86 -186 121 0 8 -11 6 -36
-9 l-35 -21 -6 22 c-3 11 -7 21 -9 21 -2 0 -28 -12 -58 -27 -54 -26 -56 -26
-76 -8 -11 10 -33 19 -50 20 -16 2 -46 12 -67 24 -33 19 -35 19 -15 2 12 -11
28 -21 35 -24 6 -2 9 -7 6 -11 -3 -3 -39 9 -80 28 -41 19 -87 38 -104 41 -29
5 -29 5 -5 -5z"/>
<path d="M988 429 c-3 -9 -26 -16 -64 -20 l-59 -7 67 3 c64 2 67 1 78 -25 6
-15 10 -47 8 -71 -3 -37 -8 -47 -37 -66 -73 -49 -290 -99 -395 -91 -61 5 -144
38 -159 63 -5 10 -15 11 -40 3 -17 -6 -38 -12 -44 -14 -7 -2 -13 -10 -13 -18
0 -25 68 -39 220 -43 155 -5 277 13 372 55 l42 18 98 -53 c125 -68 247 -109
368 -124 133 -16 234 0 214 33 -3 5 3 19 14 31 49 55 58 124 22 181 -26 43
-99 90 -170 110 -57 15 -210 26 -210 15 0 -4 42 -8 94 -11 84 -3 102 -8 170
-41 92 -46 126 -85 126 -146 0 -59 -22 -96 -78 -128 -43 -25 -55 -28 -142 -27
-135 1 -314 57 -388 120 -30 25 -36 38 -36 70 -1 21 2 53 6 69 4 17 5 24 2 18
-10 -23 -24 -14 -24 15 -1 34 -35 101 -42 81z"/>
</g>
</svg>
